<mxfile host="65bd71144e">
    <diagram id="fz0mPNk0q1lzKuWdk0Z2" name="Page-1">
        <mxGraphModel dx="1934" dy="647" grid="1" gridSize="10" guides="1" tooltips="1" connect="1" arrows="1" fold="1" page="1" pageScale="1" pageWidth="850" pageHeight="1100" math="0" shadow="0">
            <root>
                <mxCell id="0"/>
                <mxCell id="1" parent="0"/>
                <mxCell id="2" value="IAbstractFactory" style="swimlane;" vertex="1" parent="1">
                    <mxGeometry x="290" y="30" width="200" height="100" as="geometry"/>
                </mxCell>
                <mxCell id="3" value="CreateLaptop() : ILaptop" style="text;html=1;align=center;verticalAlign=middle;resizable=0;points=[];autosize=1;strokeColor=none;fillColor=none;" vertex="1" parent="2">
                    <mxGeometry x="-5" y="30" width="150" height="30" as="geometry"/>
                </mxCell>
                <mxCell id="4" value="CreateSmartphone() : ISmartphone" style="text;html=1;align=center;verticalAlign=middle;resizable=0;points=[];autosize=1;strokeColor=none;fillColor=none;" vertex="1" parent="2">
                    <mxGeometry x="-7" y="50" width="210" height="30" as="geometry"/>
                </mxCell>
                <mxCell id="5" value="CreateEBook() : IEbook" style="text;html=1;align=center;verticalAlign=middle;resizable=0;points=[];autosize=1;strokeColor=none;fillColor=none;" vertex="1" parent="2">
                    <mxGeometry x="-7" y="70" width="150" height="30" as="geometry"/>
                </mxCell>
                <mxCell id="6" value="IDevice" style="swimlane;" vertex="1" parent="1">
                    <mxGeometry x="300" y="440" width="200" height="110" as="geometry"/>
                </mxCell>
                <mxCell id="7" value="isOn : bool" style="text;html=1;align=center;verticalAlign=middle;resizable=0;points=[];autosize=1;strokeColor=none;fillColor=none;" vertex="1" parent="6">
                    <mxGeometry y="28" width="80" height="30" as="geometry"/>
                </mxCell>
                <mxCell id="8" value="Boot() : void" style="text;html=1;align=center;verticalAlign=middle;resizable=0;points=[];autosize=1;strokeColor=none;fillColor=none;" vertex="1" parent="6">
                    <mxGeometry x="-5" y="60" width="90" height="30" as="geometry"/>
                </mxCell>
                <mxCell id="9" value="Shutdown() : void" style="text;html=1;align=center;verticalAlign=middle;resizable=0;points=[];autosize=1;strokeColor=none;fillColor=none;" vertex="1" parent="6">
                    <mxGeometry x="-6" y="80" width="120" height="30" as="geometry"/>
                </mxCell>
                <mxCell id="10" value="" style="line;strokeWidth=2;html=1;" vertex="1" parent="6">
                    <mxGeometry y="50" width="200" height="10" as="geometry"/>
                </mxCell>
                <mxCell id="11" value="ILaptop" style="swimlane;" vertex="1" parent="1">
                    <mxGeometry x="540" y="300" width="200" height="110" as="geometry"/>
                </mxCell>
                <mxCell id="12" value="isIDEOpen : bool" style="text;html=1;align=center;verticalAlign=middle;resizable=0;points=[];autosize=1;strokeColor=none;fillColor=none;" vertex="1" parent="11">
                    <mxGeometry y="30" width="110" height="30" as="geometry"/>
                </mxCell>
                <mxCell id="13" value="" style="line;strokeWidth=2;html=1;" vertex="1" parent="11">
                    <mxGeometry y="60" width="200" height="10" as="geometry"/>
                </mxCell>
                <mxCell id="14" value="OpenIDE() : void" style="text;html=1;align=center;verticalAlign=middle;resizable=0;points=[];autosize=1;strokeColor=none;fillColor=none;" vertex="1" parent="11">
                    <mxGeometry x="-5" y="70" width="110" height="30" as="geometry"/>
                </mxCell>
                <mxCell id="15" value="CloseIDE() : void" style="text;html=1;align=center;verticalAlign=middle;resizable=0;points=[];autosize=1;strokeColor=none;fillColor=none;" vertex="1" parent="11">
                    <mxGeometry x="-5" y="85" width="110" height="30" as="geometry"/>
                </mxCell>
                <mxCell id="16" value="ISmartphone" style="swimlane;" vertex="1" parent="1">
                    <mxGeometry x="80" y="300" width="200" height="100" as="geometry">
                        <mxRectangle x="100" y="300" width="110" height="30" as="alternateBounds"/>
                    </mxGeometry>
                </mxCell>
                <mxCell id="17" value="inCallWithPhoneNumber : string" style="text;html=1;align=center;verticalAlign=middle;resizable=0;points=[];autosize=1;strokeColor=none;fillColor=none;" vertex="1" parent="16">
                    <mxGeometry y="25" width="190" height="30" as="geometry"/>
                </mxCell>
                <mxCell id="18" value="" style="line;strokeWidth=2;html=1;" vertex="1" parent="16">
                    <mxGeometry x="-1" y="55" width="200" height="10" as="geometry"/>
                </mxCell>
                <mxCell id="19" value="Call(string phoneNumber) : void" style="text;html=1;align=center;verticalAlign=middle;resizable=0;points=[];autosize=1;strokeColor=none;fillColor=none;" vertex="1" parent="16">
                    <mxGeometry x="-5" y="56" width="190" height="30" as="geometry"/>
                </mxCell>
                <mxCell id="20" value="Hangup() : void" style="text;html=1;align=center;verticalAlign=middle;resizable=0;points=[];autosize=1;strokeColor=none;fillColor=none;" vertex="1" parent="16">
                    <mxGeometry x="-7" y="75" width="110" height="30" as="geometry"/>
                </mxCell>
                <mxCell id="21" value="IEBook" style="swimlane;" vertex="1" parent="1">
                    <mxGeometry x="310" y="305" width="200" height="90" as="geometry"/>
                </mxCell>
                <mxCell id="22" value="openBook : string" style="text;html=1;align=center;verticalAlign=middle;resizable=0;points=[];autosize=1;strokeColor=none;fillColor=none;" vertex="1" parent="21">
                    <mxGeometry x="-10" y="20" width="120" height="30" as="geometry"/>
                </mxCell>
                <mxCell id="23" value="OpenBook(string bookName) : void" style="text;html=1;align=center;verticalAlign=middle;resizable=0;points=[];autosize=1;strokeColor=none;fillColor=none;" vertex="1" parent="21">
                    <mxGeometry x="-10" y="45" width="210" height="30" as="geometry"/>
                </mxCell>
                <mxCell id="24" value="CloseBook() : void" style="text;html=1;align=center;verticalAlign=middle;resizable=0;points=[];autosize=1;strokeColor=none;fillColor=none;" vertex="1" parent="21">
                    <mxGeometry x="-10" y="60" width="120" height="30" as="geometry"/>
                </mxCell>
                <mxCell id="25" value="" style="line;strokeWidth=2;html=1;" vertex="1" parent="21">
                    <mxGeometry y="40" width="200" height="10" as="geometry"/>
                </mxCell>
                <mxCell id="26" value="IProneFactory" style="swimlane;" vertex="1" parent="1">
                    <mxGeometry x="85" y="164" width="205" height="100" as="geometry"/>
                </mxCell>
                <mxCell id="27" value="CreateLaptop() : ILaptop" style="text;html=1;align=center;verticalAlign=middle;resizable=0;points=[];autosize=1;strokeColor=none;fillColor=none;" vertex="1" parent="26">
                    <mxGeometry x="-3" y="25" width="150" height="30" as="geometry"/>
                </mxCell>
                <mxCell id="28" value="CreateSmartphone() : ISmartphone" style="text;html=1;align=center;verticalAlign=middle;resizable=0;points=[];autosize=1;strokeColor=none;fillColor=none;" vertex="1" parent="26">
                    <mxGeometry x="-5" y="45" width="210" height="30" as="geometry"/>
                </mxCell>
                <mxCell id="29" value="CreateEBook() : IEbook" style="text;html=1;align=center;verticalAlign=middle;resizable=0;points=[];autosize=1;strokeColor=none;fillColor=none;" vertex="1" parent="26">
                    <mxGeometry x="-5" y="65" width="150" height="30" as="geometry"/>
                </mxCell>
                <mxCell id="30" value="YeskiaFactory" style="swimlane;" vertex="1" parent="1">
                    <mxGeometry x="480" y="170" width="205" height="100" as="geometry"/>
                </mxCell>
                <mxCell id="31" value="CreateLaptop() : ILaptop" style="text;html=1;align=center;verticalAlign=middle;resizable=0;points=[];autosize=1;strokeColor=none;fillColor=none;" vertex="1" parent="30">
                    <mxGeometry x="-3" y="25" width="150" height="30" as="geometry"/>
                </mxCell>
                <mxCell id="32" value="CreateSmartphone() : ISmartphone" style="text;html=1;align=center;verticalAlign=middle;resizable=0;points=[];autosize=1;strokeColor=none;fillColor=none;" vertex="1" parent="30">
                    <mxGeometry x="-5" y="45" width="210" height="30" as="geometry"/>
                </mxCell>
                <mxCell id="33" value="CreateEBook() : IEbook" style="text;html=1;align=center;verticalAlign=middle;resizable=0;points=[];autosize=1;strokeColor=none;fillColor=none;" vertex="1" parent="30">
                    <mxGeometry x="-5" y="65" width="150" height="30" as="geometry"/>
                </mxCell>
                <mxCell id="39" value="YeskiaLaptop" style="swimlane;" vertex="1" parent="1">
                    <mxGeometry x="770" y="210" width="200" height="105" as="geometry"/>
                </mxCell>
                <mxCell id="40" value="isIDEOpen : bool" style="text;html=1;align=center;verticalAlign=middle;resizable=0;points=[];autosize=1;strokeColor=none;fillColor=none;" vertex="1" parent="39">
                    <mxGeometry x="-5" y="25" width="110" height="30" as="geometry"/>
                </mxCell>
                <mxCell id="41" value="" style="line;strokeWidth=2;html=1;" vertex="1" parent="39">
                    <mxGeometry y="50" width="200" height="10" as="geometry"/>
                </mxCell>
                <mxCell id="42" value="OpenIDE() : void" style="text;html=1;align=center;verticalAlign=middle;resizable=0;points=[];autosize=1;strokeColor=none;fillColor=none;" vertex="1" parent="39">
                    <mxGeometry x="-5" y="60" width="110" height="30" as="geometry"/>
                </mxCell>
                <mxCell id="43" value="CloseIDE() : void" style="text;html=1;align=center;verticalAlign=middle;resizable=0;points=[];autosize=1;strokeColor=none;fillColor=none;" vertex="1" parent="39">
                    <mxGeometry x="-5" y="75" width="110" height="30" as="geometry"/>
                </mxCell>
                <mxCell id="49" value="IProneSmartphone" style="swimlane;startSize=23;" vertex="1" parent="1">
                    <mxGeometry x="-150" y="390" width="200" height="110" as="geometry"/>
                </mxCell>
                <mxCell id="50" value="inCallWithPhoneNumber : string" style="text;html=1;align=center;verticalAlign=middle;resizable=0;points=[];autosize=1;strokeColor=none;fillColor=none;" vertex="1" parent="49">
                    <mxGeometry x="-4" y="25" width="190" height="30" as="geometry"/>
                </mxCell>
                <mxCell id="51" value="Call(string phoneNumber) : void" style="text;html=1;align=center;verticalAlign=middle;resizable=0;points=[];autosize=1;strokeColor=none;fillColor=none;" vertex="1" parent="49">
                    <mxGeometry x="-9" y="56" width="190" height="30" as="geometry"/>
                </mxCell>
                <mxCell id="52" value="Hangup() : void" style="text;html=1;align=center;verticalAlign=middle;resizable=0;points=[];autosize=1;strokeColor=none;fillColor=none;" vertex="1" parent="49">
                    <mxGeometry x="-11" y="75" width="110" height="30" as="geometry"/>
                </mxCell>
                <mxCell id="53" value="" style="line;strokeWidth=2;html=1;" vertex="1" parent="49">
                    <mxGeometry y="46" width="200" height="10" as="geometry"/>
                </mxCell>
                <mxCell id="55" value="YeskiaSmartphone" style="swimlane;startSize=23;" vertex="1" parent="1">
                    <mxGeometry x="-160" y="250" width="200" height="110" as="geometry"/>
                </mxCell>
                <mxCell id="56" value="inCallWithPhoneNumber : string" style="text;html=1;align=center;verticalAlign=middle;resizable=0;points=[];autosize=1;strokeColor=none;fillColor=none;" vertex="1" parent="55">
                    <mxGeometry x="-4" y="25" width="190" height="30" as="geometry"/>
                </mxCell>
                <mxCell id="57" value="Call(string phoneNumber) : void" style="text;html=1;align=center;verticalAlign=middle;resizable=0;points=[];autosize=1;strokeColor=none;fillColor=none;" vertex="1" parent="55">
                    <mxGeometry x="-9" y="56" width="190" height="30" as="geometry"/>
                </mxCell>
                <mxCell id="58" value="Hangup() : void" style="text;html=1;align=center;verticalAlign=middle;resizable=0;points=[];autosize=1;strokeColor=none;fillColor=none;" vertex="1" parent="55">
                    <mxGeometry x="-11" y="75" width="110" height="30" as="geometry"/>
                </mxCell>
                <mxCell id="59" value="" style="line;strokeWidth=2;html=1;" vertex="1" parent="55">
                    <mxGeometry y="46" width="200" height="10" as="geometry"/>
                </mxCell>
                <mxCell id="60" value="IProneEBook" style="swimlane;" vertex="1" parent="1">
                    <mxGeometry x="460" y="610" width="205" height="90" as="geometry"/>
                </mxCell>
                <mxCell id="61" value="openBook : string" style="text;html=1;align=center;verticalAlign=middle;resizable=0;points=[];autosize=1;strokeColor=none;fillColor=none;" vertex="1" parent="60">
                    <mxGeometry y="20" width="120" height="30" as="geometry"/>
                </mxCell>
                <mxCell id="62" value="OpenBook(string bookName) : void" style="text;html=1;align=center;verticalAlign=middle;resizable=0;points=[];autosize=1;strokeColor=none;fillColor=none;" vertex="1" parent="60">
                    <mxGeometry x="-5" y="45" width="210" height="30" as="geometry"/>
                </mxCell>
                <mxCell id="63" value="CloseBook() : void" style="text;html=1;align=center;verticalAlign=middle;resizable=0;points=[];autosize=1;strokeColor=none;fillColor=none;" vertex="1" parent="60">
                    <mxGeometry x="-5" y="60" width="120" height="30" as="geometry"/>
                </mxCell>
                <mxCell id="64" value="" style="line;strokeWidth=2;html=1;" vertex="1" parent="60">
                    <mxGeometry x="5" y="40" width="200" height="10" as="geometry"/>
                </mxCell>
                <mxCell id="65" value="YeskiaEBook" style="swimlane;" vertex="1" parent="1">
                    <mxGeometry x="190" y="610" width="205" height="90" as="geometry"/>
                </mxCell>
                <mxCell id="66" value="openBook : string" style="text;html=1;align=center;verticalAlign=middle;resizable=0;points=[];autosize=1;strokeColor=none;fillColor=none;" vertex="1" parent="65">
                    <mxGeometry x="-5" y="20" width="120" height="30" as="geometry"/>
                </mxCell>
                <mxCell id="67" value="OpenBook(string bookName) : void" style="text;html=1;align=center;verticalAlign=middle;resizable=0;points=[];autosize=1;strokeColor=none;fillColor=none;" vertex="1" parent="65">
                    <mxGeometry x="-5" y="45" width="210" height="30" as="geometry"/>
                </mxCell>
                <mxCell id="68" value="CloseBook() : void" style="text;html=1;align=center;verticalAlign=middle;resizable=0;points=[];autosize=1;strokeColor=none;fillColor=none;" vertex="1" parent="65">
                    <mxGeometry x="-5" y="60" width="120" height="30" as="geometry"/>
                </mxCell>
                <mxCell id="69" value="" style="line;strokeWidth=2;html=1;" vertex="1" parent="65">
                    <mxGeometry x="5" y="40" width="200" height="10" as="geometry"/>
                </mxCell>
                <mxCell id="70" value="Device" style="swimlane;" vertex="1" parent="1">
                    <mxGeometry x="540" y="460" width="200" height="100" as="geometry"/>
                </mxCell>
                <mxCell id="71" value="isOn : bool" style="text;html=1;align=center;verticalAlign=middle;resizable=0;points=[];autosize=1;strokeColor=none;fillColor=none;" vertex="1" parent="70">
                    <mxGeometry y="18" width="80" height="30" as="geometry"/>
                </mxCell>
                <mxCell id="72" value="Boot() : void" style="text;html=1;align=center;verticalAlign=middle;resizable=0;points=[];autosize=1;strokeColor=none;fillColor=none;" vertex="1" parent="70">
                    <mxGeometry x="-5" y="50" width="90" height="30" as="geometry"/>
                </mxCell>
                <mxCell id="73" value="Shutdown() : void" style="text;html=1;align=center;verticalAlign=middle;resizable=0;points=[];autosize=1;strokeColor=none;fillColor=none;" vertex="1" parent="70">
                    <mxGeometry x="-6" y="70" width="120" height="30" as="geometry"/>
                </mxCell>
                <mxCell id="74" value="" style="line;strokeWidth=2;html=1;" vertex="1" parent="70">
                    <mxGeometry y="40" width="200" height="10" as="geometry"/>
                </mxCell>
                <mxCell id="76" value="" style="endArrow=block;startArrow=none;endFill=0;startFill=0;endSize=8;html=1;verticalAlign=bottom;dashed=1;labelBackgroundColor=none;exitX=0.5;exitY=0;exitDx=0;exitDy=0;" edge="1" parent="1" source="30">
                    <mxGeometry width="160" relative="1" as="geometry">
                        <mxPoint x="450" y="330" as="sourcePoint"/>
                        <mxPoint x="490" y="70" as="targetPoint"/>
                        <Array as="points">
                            <mxPoint x="583" y="70"/>
                        </Array>
                    </mxGeometry>
                </mxCell>
                <mxCell id="77" value="" style="endArrow=block;startArrow=none;endFill=0;startFill=0;endSize=8;html=1;verticalAlign=bottom;dashed=1;labelBackgroundColor=none;exitX=0.5;exitY=0;exitDx=0;exitDy=0;entryX=0.029;entryY=0.033;entryDx=0;entryDy=0;entryPerimeter=0;" edge="1" parent="1">
                    <mxGeometry width="160" relative="1" as="geometry">
                        <mxPoint x="187.5" y="161" as="sourcePoint"/>
                        <mxPoint x="289.0899999999999" y="71.99000000000001" as="targetPoint"/>
                        <Array as="points">
                            <mxPoint x="188" y="72"/>
                        </Array>
                    </mxGeometry>
                </mxCell>
                <mxCell id="79" value="" style="endArrow=none;startArrow=diamondThin;endFill=0;startFill=0;html=1;verticalAlign=bottom;labelBackgroundColor=none;strokeWidth=1;startSize=8;endSize=8;exitX=0.653;exitY=1.067;exitDx=0;exitDy=0;exitPerimeter=0;entryX=0.5;entryY=0;entryDx=0;entryDy=0;" edge="1" parent="1" source="5" target="16">
                    <mxGeometry width="160" relative="1" as="geometry">
                        <mxPoint x="440" y="300" as="sourcePoint"/>
                        <mxPoint x="180" y="280" as="targetPoint"/>
                        <Array as="points">
                            <mxPoint x="380" y="280"/>
                            <mxPoint x="180" y="280"/>
                        </Array>
                    </mxGeometry>
                </mxCell>
                <mxCell id="80" value="" style="endArrow=none;startArrow=diamondThin;endFill=0;startFill=0;html=1;verticalAlign=bottom;labelBackgroundColor=none;strokeWidth=1;startSize=8;endSize=8;exitX=0.653;exitY=1.067;exitDx=0;exitDy=0;exitPerimeter=0;entryX=0.5;entryY=0;entryDx=0;entryDy=0;" edge="1" parent="1" target="21">
                    <mxGeometry width="160" relative="1" as="geometry">
                        <mxPoint x="380.95000000000005" y="132.01" as="sourcePoint"/>
                        <mxPoint x="180" y="300" as="targetPoint"/>
                        <Array as="points">
                            <mxPoint x="380" y="280"/>
                            <mxPoint x="410" y="280"/>
                        </Array>
                    </mxGeometry>
                </mxCell>
                <mxCell id="81" value="" style="endArrow=none;startArrow=diamondThin;endFill=0;startFill=0;html=1;verticalAlign=bottom;labelBackgroundColor=none;strokeWidth=1;startSize=8;endSize=8;exitX=0.653;exitY=1.067;exitDx=0;exitDy=0;exitPerimeter=0;entryX=0.5;entryY=0;entryDx=0;entryDy=0;" edge="1" parent="1" target="11">
                    <mxGeometry width="160" relative="1" as="geometry">
                        <mxPoint x="380.95000000000005" y="131.01" as="sourcePoint"/>
                        <mxPoint x="180" y="299" as="targetPoint"/>
                        <Array as="points">
                            <mxPoint x="380" y="279"/>
                            <mxPoint x="640" y="280"/>
                        </Array>
                    </mxGeometry>
                </mxCell>
                <mxCell id="82" value="returns" style="text;html=1;align=center;verticalAlign=middle;resizable=0;points=[];autosize=1;strokeColor=none;fillColor=none;" vertex="1" parent="1">
                    <mxGeometry x="380" y="190" width="60" height="30" as="geometry"/>
                </mxCell>
                <mxCell id="83" value="" style="html=1;verticalAlign=bottom;labelBackgroundColor=none;endArrow=block;endFill=1;endSize=6;align=left;exitX=1.009;exitY=0.833;exitDx=0;exitDy=0;exitPerimeter=0;entryX=0.5;entryY=0;entryDx=0;entryDy=0;" edge="1" parent="1" source="20" target="6">
                    <mxGeometry x="-1" relative="1" as="geometry">
                        <mxPoint x="360" y="440" as="sourcePoint"/>
                        <mxPoint x="520" y="440" as="targetPoint"/>
                        <Array as="points">
                            <mxPoint x="184" y="420"/>
                            <mxPoint x="400" y="420"/>
                        </Array>
                    </mxGeometry>
                </mxCell>
                <mxCell id="84" value="" style="html=1;verticalAlign=bottom;labelBackgroundColor=none;endArrow=block;endFill=1;endSize=6;align=left;exitX=0.833;exitY=1;exitDx=0;exitDy=0;exitPerimeter=0;entryX=0.5;entryY=0;entryDx=0;entryDy=0;" edge="1" parent="1" source="24">
                    <mxGeometry x="-1" relative="1" as="geometry">
                        <mxPoint x="183.99" y="399.99" as="sourcePoint"/>
                        <mxPoint x="400" y="440" as="targetPoint"/>
                        <Array as="points">
                            <mxPoint x="400" y="420"/>
                        </Array>
                    </mxGeometry>
                </mxCell>
                <mxCell id="85" value="" style="html=1;verticalAlign=bottom;labelBackgroundColor=none;endArrow=block;endFill=1;endSize=6;align=left;entryX=0.5;entryY=0;entryDx=0;entryDy=0;" edge="1" parent="1">
                    <mxGeometry x="-1" relative="1" as="geometry">
                        <mxPoint x="640" y="410" as="sourcePoint"/>
                        <mxPoint x="400" y="440" as="targetPoint"/>
                        <Array as="points">
                            <mxPoint x="640" y="420"/>
                            <mxPoint x="400" y="420"/>
                        </Array>
                    </mxGeometry>
                </mxCell>
                <mxCell id="34" value="IProneLaptop" style="swimlane;" vertex="1" parent="1">
                    <mxGeometry x="770" y="360" width="200" height="100" as="geometry"/>
                </mxCell>
                <mxCell id="35" value="isIDEOpen : bool" style="text;html=1;align=center;verticalAlign=middle;resizable=0;points=[];autosize=1;strokeColor=none;fillColor=none;" vertex="1" parent="34">
                    <mxGeometry x="-5" y="25" width="110" height="30" as="geometry"/>
                </mxCell>
                <mxCell id="36" value="" style="line;strokeWidth=2;html=1;" vertex="1" parent="34">
                    <mxGeometry y="50" width="200" height="10" as="geometry"/>
                </mxCell>
                <mxCell id="37" value="OpenIDE() : void" style="text;html=1;align=center;verticalAlign=middle;resizable=0;points=[];autosize=1;strokeColor=none;fillColor=none;" vertex="1" parent="34">
                    <mxGeometry x="-5" y="60" width="110" height="30" as="geometry"/>
                </mxCell>
                <mxCell id="38" value="CloseIDE() : void" style="text;html=1;align=center;verticalAlign=middle;resizable=0;points=[];autosize=1;strokeColor=none;fillColor=none;" vertex="1" parent="34">
                    <mxGeometry x="-5" y="75" width="110" height="30" as="geometry"/>
                </mxCell>
                <mxCell id="86" value="" style="endArrow=block;startArrow=none;endFill=0;startFill=0;endSize=8;html=1;verticalAlign=bottom;dashed=1;labelBackgroundColor=none;exitX=-0.025;exitY=-0.167;exitDx=0;exitDy=0;exitPerimeter=0;entryX=1.01;entryY=0.118;entryDx=0;entryDy=0;entryPerimeter=0;" edge="1" parent="1" source="71" target="6">
                    <mxGeometry width="160" relative="1" as="geometry">
                        <mxPoint x="892.5" y="600" as="sourcePoint"/>
                        <mxPoint x="800" y="500" as="targetPoint"/>
                        <Array as="points">
                            <mxPoint x="520" y="473"/>
                        </Array>
                    </mxGeometry>
                </mxCell>
                <mxCell id="87" value="" style="endArrow=block;startArrow=none;endFill=0;startFill=0;endSize=8;html=1;verticalAlign=bottom;dashed=1;labelBackgroundColor=none;exitX=0.25;exitY=0;exitDx=0;exitDy=0;entryX=0.142;entryY=1.033;entryDx=0;entryDy=0;entryPerimeter=0;" edge="1" parent="1" source="65" target="24">
                    <mxGeometry width="160" relative="1" as="geometry">
                        <mxPoint x="548" y="482.99" as="sourcePoint"/>
                        <mxPoint x="512" y="462.98" as="targetPoint"/>
                        <Array as="points">
                            <mxPoint x="240" y="430"/>
                        </Array>
                    </mxGeometry>
                </mxCell>
                <mxCell id="88" value="" style="endArrow=block;startArrow=none;endFill=0;startFill=0;endSize=8;html=1;verticalAlign=bottom;dashed=1;labelBackgroundColor=none;entryX=0.142;entryY=1.033;entryDx=0;entryDy=0;entryPerimeter=0;exitX=0.444;exitY=-0.022;exitDx=0;exitDy=0;exitPerimeter=0;" edge="1" parent="1" source="60">
                    <mxGeometry width="160" relative="1" as="geometry">
                        <mxPoint x="240" y="601" as="sourcePoint"/>
                        <mxPoint x="317.03999999999996" y="396.99" as="targetPoint"/>
                        <Array as="points">
                            <mxPoint x="550" y="580"/>
                            <mxPoint x="240" y="580"/>
                            <mxPoint x="240" y="431"/>
                        </Array>
                    </mxGeometry>
                </mxCell>
                <mxCell id="89" value="" style="endArrow=block;startArrow=none;endFill=0;startFill=0;endSize=8;html=1;verticalAlign=bottom;dashed=1;labelBackgroundColor=none;entryX=1;entryY=0.75;entryDx=0;entryDy=0;" edge="1" parent="1" target="11">
                    <mxGeometry width="160" relative="1" as="geometry">
                        <mxPoint x="770" y="383" as="sourcePoint"/>
                        <mxPoint x="910" y="519" as="targetPoint"/>
                        <Array as="points">
                            <mxPoint x="770" y="383"/>
                        </Array>
                    </mxGeometry>
                </mxCell>
                <mxCell id="90" value="" style="endArrow=block;startArrow=none;endFill=0;startFill=0;endSize=8;html=1;verticalAlign=bottom;dashed=1;labelBackgroundColor=none;entryX=1;entryY=0;entryDx=0;entryDy=0;" edge="1" parent="1" target="11">
                    <mxGeometry width="160" relative="1" as="geometry">
                        <mxPoint x="770" y="220" as="sourcePoint"/>
                        <mxPoint x="750" y="392.5" as="targetPoint"/>
                        <Array as="points">
                            <mxPoint x="770" y="220"/>
                            <mxPoint x="740" y="250"/>
                        </Array>
                    </mxGeometry>
                </mxCell>
                <mxCell id="91" value="" style="endArrow=block;startArrow=none;endFill=0;startFill=0;endSize=8;html=1;verticalAlign=bottom;dashed=1;labelBackgroundColor=none;exitX=1.015;exitY=0.145;exitDx=0;exitDy=0;exitPerimeter=0;" edge="1" parent="1" target="20">
                    <mxGeometry width="160" relative="1" as="geometry">
                        <mxPoint x="53" y="421.95000000000005" as="sourcePoint"/>
                        <mxPoint x="110" y="422" as="targetPoint"/>
                        <Array as="points"/>
                    </mxGeometry>
                </mxCell>
                <mxCell id="92" value="" style="endArrow=block;startArrow=none;endFill=0;startFill=0;endSize=8;html=1;verticalAlign=bottom;dashed=1;labelBackgroundColor=none;exitX=1;exitY=0.5;exitDx=0;exitDy=0;entryX=-0.01;entryY=0.1;entryDx=0;entryDy=0;entryPerimeter=0;" edge="1" parent="1" source="55" target="16">
                    <mxGeometry width="160" relative="1" as="geometry">
                        <mxPoint x="70" y="310" as="sourcePoint"/>
                        <mxPoint x="102.7887323943662" y="415" as="targetPoint"/>
                        <Array as="points"/>
                    </mxGeometry>
                </mxCell>
                <mxCell id="95" value="" style="html=1;verticalAlign=bottom;labelBackgroundColor=none;endArrow=block;endFill=1;endSize=6;align=left;exitX=0.878;exitY=0;exitDx=0;exitDy=0;exitPerimeter=0;" edge="1" parent="1" source="60">
                    <mxGeometry x="-1" relative="1" as="geometry">
                        <mxPoint x="180" y="570" as="sourcePoint"/>
                        <mxPoint x="640" y="560" as="targetPoint"/>
                        <Array as="points"/>
                    </mxGeometry>
                </mxCell>
                <mxCell id="96" value="" style="html=1;verticalAlign=bottom;labelBackgroundColor=none;endArrow=block;endFill=1;endSize=6;align=left;exitX=0.75;exitY=0;exitDx=0;exitDy=0;entryX=0.892;entryY=0.967;entryDx=0;entryDy=0;entryPerimeter=0;" edge="1" parent="1">
                    <mxGeometry x="-1" relative="1" as="geometry">
                        <mxPoint x="342.75" y="610" as="sourcePoint"/>
                        <mxPoint x="640.04" y="559.01" as="targetPoint"/>
                        <Array as="points">
                            <mxPoint x="343" y="590"/>
                            <mxPoint x="640" y="590"/>
                        </Array>
                    </mxGeometry>
                </mxCell>
                <mxCell id="97" value="" style="html=1;verticalAlign=bottom;labelBackgroundColor=none;endArrow=block;endFill=1;endSize=6;align=left;exitX=1.009;exitY=0.867;exitDx=0;exitDy=0;exitPerimeter=0;" edge="1" parent="1" source="38">
                    <mxGeometry x="-1" relative="1" as="geometry">
                        <mxPoint x="659.9899999999998" y="630" as="sourcePoint"/>
                        <mxPoint x="740" y="530" as="targetPoint"/>
                        <Array as="points">
                            <mxPoint x="876" y="530"/>
                        </Array>
                    </mxGeometry>
                </mxCell>
                <mxCell id="98" value="" style="html=1;verticalAlign=bottom;labelBackgroundColor=none;endArrow=block;endFill=1;endSize=6;align=left;exitX=1;exitY=0.5;exitDx=0;exitDy=0;" edge="1" parent="1" source="39">
                    <mxGeometry x="-1" relative="1" as="geometry">
                        <mxPoint x="669.9899999999998" y="640" as="sourcePoint"/>
                        <mxPoint x="740" y="530" as="targetPoint"/>
                        <Array as="points">
                            <mxPoint x="1010" y="263"/>
                            <mxPoint x="1010" y="530"/>
                        </Array>
                    </mxGeometry>
                </mxCell>
                <mxCell id="99" value="" style="html=1;verticalAlign=bottom;labelBackgroundColor=none;endArrow=block;endFill=1;endSize=6;align=left;entryX=0.9;entryY=1.033;entryDx=0;entryDy=0;entryPerimeter=0;" edge="1" parent="1">
                    <mxGeometry x="-1" relative="1" as="geometry">
                        <mxPoint x="-61" y="500" as="sourcePoint"/>
                        <mxPoint x="641" y="560.99" as="targetPoint"/>
                        <Array as="points">
                            <mxPoint x="-61" y="590"/>
                            <mxPoint x="641" y="590"/>
                        </Array>
                    </mxGeometry>
                </mxCell>
                <mxCell id="100" value="" style="html=1;verticalAlign=bottom;labelBackgroundColor=none;endArrow=block;endFill=1;endSize=6;align=left;exitX=0;exitY=0.5;exitDx=0;exitDy=0;exitPerimeter=0;" edge="1" parent="1" source="59">
                    <mxGeometry x="-1" relative="1" as="geometry">
                        <mxPoint x="689.9899999999998" y="660" as="sourcePoint"/>
                        <mxPoint x="640" y="560" as="targetPoint"/>
                        <Array as="points">
                            <mxPoint x="-190" y="300"/>
                            <mxPoint x="-190" y="590"/>
                            <mxPoint x="640" y="590"/>
                        </Array>
                    </mxGeometry>
                </mxCell>
            </root>
        </mxGraphModel>
    </diagram>
</mxfile>